<svg xmlns="http://www.w3.org/2000/svg" viewBox="0 0 200 200" width="200" height="200">
  <defs>
    <style>
      .shelf { fill: #4B5563; }
      .box { fill: #FF6B35; stroke: #fff; stroke-width: 1; }
      .forklift-body { fill: #10B981; }
      .forklift-detail { fill: #065F46; }
      .wheel { fill: #1F2937; }
      .pallet { fill: #92400E; stroke: #78350F; stroke-width: 1; }
    </style>
  </defs>
  
  <!-- Background -->
  <rect width="200" height="200" fill="#F3F4F6"/>
  
  <!-- Warehouse shelves (background) -->
  <g opacity="0.6">
    <!-- Left shelf -->
    <rect class="shelf" x="10" y="40" width="50" height="5"/>
    <rect class="shelf" x="10" y="60" width="50" height="5"/>
    <rect class="shelf" x="10" y="80" width="50" height="5"/>
    <rect class="shelf" x="10" y="100" width="50" height="5"/>
    
    <!-- Vertical supports left -->
    <rect class="shelf" x="10" y="40" width="3" height="65"/>
    <rect class="shelf" x="57" y="40" width="3" height="65"/>
    
    <!-- Right shelf -->
    <rect class="shelf" x="140" y="40" width="50" height="5"/>
    <rect class="shelf" x="140" y="60" width="50" height="5"/>
    <rect class="shelf" x="140" y="80" width="50" height="5"/>
    <rect class="shelf" x="140" y="100" width="50" height="5"/>
    
    <!-- Vertical supports right -->
    <rect class="shelf" x="140" y="40" width="3" height="65"/>
    <rect class="shelf" x="187" y="40" width="3" height="65"/>
  </g>
  
  <!-- Boxes on shelves -->
  <rect class="box" x="15" y="45" width="12" height="12" rx="1"/>
  <rect class="box" x="30" y="45" width="12" height="12" rx="1"/>
  <rect class="box" x="45" y="45" width="12" height="12" rx="1"/>
  
  <rect class="box" x="15" y="65" width="12" height="12" rx="1"/>
  <rect class="box" x="30" y="65" width="12" height="12" rx="1"/>
  
  <rect class="box" x="145" y="45" width="12" height="12" rx="1"/>
  <rect class="box" x="160" y="45" width="12" height="12" rx="1"/>
  <rect class="box" x="175" y="45" width="12" height="12" rx="1"/>
  
  <rect class="box" x="145" y="65" width="12" height="12" rx="1"/>
  <rect class="box" x="160" y="65" width="12" height="12" rx="1"/>
  
  <!-- Pallets on ground -->
  <g>
    <rect class="pallet" x="70" y="150" width="25" height="4"/>
    <rect class="pallet" x="70" y="156" width="25" height="2"/>
    <rect class="box" x="72" y="135" width="8" height="15" rx="1"/>
    <rect class="box" x="82" y="135" width="8" height="15" rx="1"/>
  </g>
  
  <!-- Forklift (main focus) -->
  <g transform="translate(100, 110)">
    <!-- Wheels -->
    <circle class="wheel" cx="-15" cy="45" r="7"/>
    <circle class="wheel" cx="20" cy="45" r="7"/>
    
    <!-- Main body -->
    <rect class="forklift-body" x="-20" y="25" width="45" height="25" rx="2"/>
    
    <!-- Cabin -->
    <rect class="forklift-body" x="10" y="10" width="20" height="20" rx="2"/>
    <rect class="forklift-detail" x="12" y="12" width="16" height="10" rx="1" opacity="0.5"/>
    
    <!-- Engine hood -->
    <rect class="forklift-detail" x="-20" y="25" width="15" height="15" rx="1"/>
    
    <!-- Counterweight -->
    <rect class="forklift-detail" x="20" y="30" width="8" height="20" rx="1"/>
    
    <!-- Mast -->
    <rect class="forklift-detail" x="-30" y="-25" width="4" height="55"/>
    <rect class="forklift-detail" x="-24" y="-25" width="2" height="55" opacity="0.5"/>
    
    <!-- Fork carriage -->
    <rect class="forklift-body" x="-32" y="5" width="8" height="8"/>
    
    <!-- Forks -->
    <rect class="forklift-detail" x="-40" y="8" width="4" height="25" rx="1"/>
    <rect class="forklift-detail" x="-34" y="8" width="4" height="25" rx="1"/>
    
    <!-- Box being lifted -->
    <rect class="box" x="-38" y="-5" width="12" height="12" rx="1"/>
  </g>
  
  <!-- Movement arrows -->
  <g opacity="0.4">
    <path d="M 30 130 L 50 130" stroke="#10B981" stroke-width="2" fill="none" marker-end="url(#arrowhead)"/>
    <path d="M 150 130 L 170 130" stroke="#10B981" stroke-width="2" fill="none" marker-end="url(#arrowhead)"/>
  </g>
  
  <defs>
    <marker id="arrowhead" markerWidth="10" markerHeight="10" refX="9" refY="3" orient="auto">
      <polygon points="0 0, 10 3, 0 6" fill="#10B981"/>
    </marker>
  </defs>
</svg>
